<svg xmlns="http://www.w3.org/2000/svg" viewBox="0 0 200 200" width="200" height="200">
  <!-- Background -->
  <circle cx="100" cy="100" r="100" fill="#2a2a2a"/>
  <!-- Neck -->
  <rect x="82" y="140" width="36" height="24" rx="4" fill="#f0c8a0"/>
  <!-- Shoulders / Shirt -->
  <ellipse cx="100" cy="195" rx="70" ry="45" fill="#333"/>
  <ellipse cx="100" cy="195" rx="68" ry="43" fill="#444"/>
  <!-- Collar -->
  <path d="M80 168 L100 180 L120 168" fill="none" stroke="#555" stroke-width="2"/>
  <!-- Face -->
  <ellipse cx="100" cy="105" rx="48" ry="55" fill="#f0c8a0"/>
  <!-- Ears -->
  <ellipse cx="52" cy="108" rx="8" ry="12" fill="#e8b890"/>
  <ellipse cx="148" cy="108" rx="8" ry="12" fill="#e8b890"/>
  <!-- Hair - back layer covering top of head -->
  <path d="M48 95 Q48 42 100 38 Q152 42 152 95 Q152 75 140 60 Q120 42 100 42 Q80 42 60 60 Q48 75 48 95 Z" fill="#1a1a1a"/>
  <!-- Hair - top volume -->
  <path d="M50 90 Q50 45 100 40 Q150 45 150 90 L148 80 Q145 55 100 48 Q55 55 52 80 Z" fill="#222"/>
  <!-- Hair - left side -->
  <path d="M48 95 Q46 105 50 112 Q48 100 52 92 Z" fill="#1a1a1a"/>
  <!-- Hair - right side -->
  <path d="M152 95 Q154 105 150 112 Q152 100 148 92 Z" fill="#1a1a1a"/>
  <!-- Fringe - swept to the right, natural -->
  <path d="M52 80 Q58 62 78 56 Q90 52 100 53 L95 58 Q78 58 65 68 Q56 76 52 80 Z" fill="#1a1a1a"/>
  <path d="M60 76 Q72 58 100 53 Q110 52 125 56 L118 60 Q100 56 82 62 Q68 68 60 76 Z" fill="#1a1a1a"/>
  <!-- Eyebrows -->
  <path d="M72 92 Q82 87 92 90" fill="none" stroke="#1a1a1a" stroke-width="2.5" stroke-linecap="round"/>
  <path d="M108 90 Q118 87 128 92" fill="none" stroke="#1a1a1a" stroke-width="2.5" stroke-linecap="round"/>
  <!-- Eyes -->
  <ellipse cx="82" cy="102" rx="7" ry="8" fill="#fff"/>
  <ellipse cx="118" cy="102" rx="7" ry="8" fill="#fff"/>
  <ellipse cx="83" cy="103" rx="4.5" ry="5" fill="#2c1810"/>
  <ellipse cx="119" cy="103" rx="4.5" ry="5" fill="#2c1810"/>
  <ellipse cx="84" cy="101" rx="2" ry="2" fill="#fff"/>
  <ellipse cx="120" cy="101" rx="2" ry="2" fill="#fff"/>
  <!-- Nose -->
  <path d="M98 108 Q100 116 102 108" fill="none" stroke="#d4a882" stroke-width="1.5" stroke-linecap="round"/>
  <!-- Mouth - slight smile -->
  <path d="M88 124 Q100 132 112 124" fill="none" stroke="#c4877a" stroke-width="2" stroke-linecap="round"/>
</svg>
